<svg xmlns="http://www.w3.org/2000/svg" style="background: none;" preserveAspectRatio="xMidYMid" viewBox="-18.4 58.05 536.8 59.62"><defs><filter id="editing-vr"><feFlood flood-color="rgba(100%,100%,100%,0.612)" flood-opacity="0.7" result="c1"></feFlood><feFlood flood-color="#d732f5" flood-opacity="0.7" result="c3"></feFlood><feComposite operator="in" in="c1" in2="SourceAlpha" result="text-c1"></feComposite><feComposite operator="in" in="c3" in2="SourceAlpha" result="text-c3"></feComposite><feOffset in="text-c1" dx="5" dy="-1" result="text1"></feOffset><feOffset in="text-c3" dx="-5" dy="1" result="text3"></feOffset><feBlend in="SourceGraphic" in2="text1" mode="multiply" result="text4"></feBlend><feBlend in="text4" in2="text3" mode="multiply"></feBlend></filter></defs><g filter="url(#editing-vr)"><g transform="translate(-18.89499831199646, 104.79000091552734)"><path d="M28.42-9.86L28.42-9.86L28.42-9.86Q29.63-8.32 29.63-5.82L29.63-5.82L29.63-5.82Q29.63-2.37 27.07-0.54L27.07-0.54L27.07-0.54Q24.51 1.28 20.48 1.28L20.48 1.28L20.48 1.28Q18.18 1.28 14.66 0.77L14.66 0.77L14.66 0.77Q7.74-0.32 5.63-0.32L5.63-0.32L5.63-0.32Q3.52-0.32 2.69-0.22L2.69-0.22L2.69-0.22Q1.86-0.13 0.51 0L0.51 0L8.38-42.24L35.97-42.24L35.97-42.24Q35.97-38.34 34.08-36.29L34.08-36.29L34.08-36.29Q32.19-34.24 28.48-34.24L28.48-34.24L28.48-34.24Q24.77-34.24 20.99-35.97L20.99-35.97L19.01-24.77L30.40-24.77L30.40-24.77Q30.40-21.38 28.74-19.49L28.74-19.49L28.74-19.49Q27.07-17.60 24.29-17.60L24.29-17.60L24.29-17.60Q21.50-17.60 19.78-18.24L19.78-18.24L19.78-18.24Q18.05-18.88 17.86-19.07L17.86-19.07L15.55-6.98L15.55-6.98Q17.09-6.78 19.97-6.78L19.97-6.78L19.97-6.78Q24.90-6.78 28.42-9.86ZM55.68-33.92L55.68-33.92L55.68-33.92Q57.98-33.92 59.78-33.41L59.78-33.41L59.78-33.41Q59.84-33.66 59.97-34.37L59.97-34.37L60.29-36.35L60.29-36.35Q60.54-37.63 60.93-39.74L60.93-39.74L61.95-44.80L74.69-46.08L67.58-8.96L67.58-8.96Q67.52-8.58 67.52-7.94L67.52-7.94L67.52-6.91L67.52-6.91Q67.52-5.50 68.22-4.45L68.22-4.45L68.22-4.45Q68.93-3.39 70.08-3.39L70.08-3.39L70.08-3.39Q68.80-0.38 64.90 0.90L64.90 0.90L64.90 0.90Q63.55 1.28 61.66 1.28L61.66 1.28L61.66 1.28Q59.78 1.28 58.05 0.29L58.05 0.29L58.05 0.29Q56.32-0.70 55.81-2.37L55.81-2.37L55.81-2.37Q54.78-0.70 52.74 0.29L52.74 0.29L52.74 0.29Q50.69 1.28 47.71 1.28L47.71 1.28L47.71 1.28Q44.74 1.28 42.27 0.51L42.27 0.51L42.27 0.51Q39.81-0.26 38.27-1.92L38.27-1.92L38.27-1.92Q35.46-5.18 35.46-12.61L35.46-12.61L35.46-12.61Q35.46-22.21 41.09-28.03L41.09-28.03L41.09-28.03Q46.72-33.92 55.68-33.92ZM55.23-30.08L55.23-30.08L55.23-30.08Q52.86-30.08 51.58-27.52L51.58-27.52L51.58-27.52Q50.30-24.96 48.99-18.62L48.99-18.62L48.99-18.62Q47.68-12.29 47.68-6.59L47.68-6.59L47.68-6.59Q47.68-2.69 49.98-2.69L49.98-2.69L49.98-2.69Q52.03-2.69 53.47-4.74L53.47-4.74L53.47-4.74Q54.91-6.78 55.49-10.18L55.49-10.18L58.94-28.93L58.94-28.93Q57.60-30.08 55.23-30.08ZM123.26-10.69L123.26-10.69Q119.04-4.86 114.98-1.79L114.98-1.79L114.98-1.79Q110.91 1.28 106.72 1.28L106.72 1.28L106.72 1.28Q102.53 1.28 101.06 0.45L101.06 0.45L101.06-13.63L101.06-13.63Q97.41-3.90 90.88-0.13L90.88-0.13L90.88-0.13Q88.51 1.28 86.27 1.28L86.27 1.28L86.27 1.28Q81.98 1.28 80.13 0.45L80.13 0.45L80.13 0.45Q79.68-14.21 79.30-18.27L79.30-18.27L79.30-18.27Q78.91-22.34 78.59-24.83L78.59-24.83L78.59-24.83Q77.95-29.82 75.78-31.87L75.78-31.87L75.78-31.87Q78.53-33.92 82.37-33.92L82.37-33.92L82.37-33.92Q89.79-33.92 90.82-24.70L90.82-24.70L90.82-24.70Q91.07-22.53 91.07-20.22L91.07-20.22L91.07-20.22Q91.07-16.77 90.30-4.74L90.30-4.74L90.30-4.74Q91.84-5.44 93.47-7.97L93.47-7.97L93.47-7.97Q95.10-10.50 96.45-13.95L96.45-13.95L96.45-13.95Q99.46-21.95 99.46-28.86L99.46-28.86L99.46-28.86Q99.46-29.95 99.17-31.10L99.17-31.10L99.17-31.10Q98.88-32.26 98.56-32.58L98.56-32.58L98.56-32.58Q100.80-33.92 104.22-33.92L104.22-33.92L104.22-33.92Q107.65-33.92 109.28-31.58L109.28-31.58L109.28-31.58Q110.91-29.25 111.36-24.96L111.36-24.96L111.36-24.96Q111.87-19.52 111.87-16.26L111.87-16.26L111.87-16.26Q111.87-11.71 111.42-4.99L111.42-4.99L111.42-4.99Q114.62-7.30 117.25-14.85L117.25-14.85L117.25-14.85Q119.87-22.40 119.87-27.78L119.87-27.78L119.87-27.78Q119.87-30.14 119.49-31.55L119.49-31.55L119.49-31.55Q121.60-33.92 125.25-33.92L125.25-33.92L125.25-33.92Q127.49-33.92 129.12-32.70L129.12-32.70L129.12-32.70Q130.75-31.49 130.75-29.22L130.75-29.22L130.75-29.22Q130.75-26.94 130.08-24.51L130.08-24.51L130.08-24.51Q129.41-22.08 128.32-19.58L128.32-19.58L128.32-19.58Q126.21-14.59 123.26-10.69L123.26-10.69ZM135.26-1.92L135.26-1.92L135.26-1.92Q133.76-3.58 133.09-6.21L133.09-6.21L133.09-6.21Q132.42-8.83 132.42-13.12L132.42-13.12L132.42-13.12Q132.42-17.41 133.89-21.31L133.89-21.31L133.89-21.31Q135.36-25.22 138.05-28.03L138.05-28.03L138.05-28.03Q143.55-33.92 152.64-33.92L152.64-33.92L152.64-33.92Q155.90-33.92 158.27-32.83L158.27-32.83L169.22-33.92L164.48-8.96L164.48-8.96Q164.29-8.19 164.29-6.78L164.29-6.78L164.29-6.78Q164.29-5.38 165.15-4.48L165.15-4.48L165.15-4.48Q166.02-3.58 167.30-3.46L167.30-3.46L167.30-3.46Q166.66-1.28 164.32 0L164.32 0L164.32 0Q161.98 1.28 159.36 1.28L159.36 1.28L159.36 1.28Q156.74 1.28 154.98 0.29L154.98 0.29L154.98 0.29Q153.22-0.70 152.70-2.37L152.70-2.37L152.70-2.37Q151.68-0.77 149.50 0.26L149.50 0.26L149.50 0.26Q147.33 1.28 144.42 1.28L144.42 1.28L144.42 1.28Q141.50 1.28 139.14 0.51L139.14 0.51L139.14 0.51Q136.77-0.26 135.26-1.92ZM148.77-27.90L148.77-27.90L148.77-27.90Q148.03-26.75 147.39-24.80L147.39-24.80L147.39-24.80Q146.75-22.85 145.70-17.63L145.70-17.63L145.70-17.63Q144.64-12.42 144.64-8.70L144.64-8.70L144.64-8.70Q144.64-4.99 145.22-3.90L145.22-3.90L145.22-3.90Q145.79-2.82 146.82-2.82L146.82-2.82L146.82-2.82Q148.86-2.82 150.37-4.77L150.37-4.77L150.37-4.77Q151.87-6.72 152.45-10.18L152.45-10.18L155.84-28.93L155.84-28.93Q154.50-30.08 152.93-30.08L152.93-30.08L152.93-30.08Q151.36-30.08 150.43-29.57L150.43-29.57L150.43-29.57Q149.50-29.06 148.77-27.90ZM192.70-17.98L192.70-17.98L192.70-17.98Q195.01-22.08 195.01-26.24L195.01-26.24L195.01-26.24Q195.01-28.99 193.02-28.99L193.02-28.99L193.02-28.99Q191.49-28.99 189.89-26.37L189.89-26.37L189.89-26.37Q188.22-23.74 187.71-20.35L187.71-20.35L184.38 0L171.14 1.28L177.66-32.64L188.22-33.92L187.07-27.46L187.07-27.46Q190.21-33.92 197.25-33.92L197.25-33.92L197.25-33.92Q200.96-33.92 202.98-32L202.98-32L202.98-32Q204.99-30.08 204.99-26.14L204.99-26.14L204.99-26.14Q204.99-22.21 202.40-19.71L202.40-19.71L202.40-19.71Q199.81-17.22 195.39-17.22L195.39-17.22L195.39-17.22Q193.47-17.22 192.70-17.98ZM226.18-33.92L226.18-33.92L226.18-33.92Q228.48-33.92 230.27-33.41L230.27-33.41L230.27-33.41Q230.34-33.66 230.46-34.37L230.46-34.37L230.78-36.35L230.78-36.35Q231.04-37.63 231.42-39.74L231.42-39.74L232.45-44.80L245.18-46.08L238.08-8.96L238.08-8.96Q238.02-8.58 238.02-7.94L238.02-7.94L238.02-6.91L238.02-6.91Q238.02-5.50 238.72-4.45L238.72-4.45L238.72-4.45Q239.42-3.39 240.58-3.39L240.58-3.39L240.58-3.39Q239.30-0.38 235.39 0.90L235.39 0.90L235.39 0.90Q234.05 1.28 232.16 1.28L232.16 1.28L232.16 1.28Q230.27 1.28 228.54 0.29L228.54 0.29L228.54 0.29Q226.82-0.70 226.30-2.37L226.30-2.37L226.30-2.37Q225.28-0.70 223.23 0.29L223.23 0.29L223.23 0.29Q221.18 1.28 218.21 1.28L218.21 1.28L218.21 1.28Q215.23 1.28 212.77 0.51L212.77 0.51L212.77 0.51Q210.30-0.26 208.77-1.92L208.77-1.92L208.77-1.92Q205.95-5.18 205.95-12.61L205.95-12.61L205.95-12.61Q205.95-22.21 211.58-28.03L211.58-28.03L211.58-28.03Q217.22-33.92 226.18-33.92ZM225.73-30.08L225.73-30.08L225.73-30.08Q223.36-30.08 222.08-27.52L222.08-27.52L222.08-27.52Q220.80-24.96 219.49-18.62L219.49-18.62L219.49-18.62Q218.18-12.29 218.18-6.59L218.18-6.59L218.18-6.59Q218.18-2.69 220.48-2.69L220.48-2.69L220.48-2.69Q222.53-2.69 223.97-4.74L223.97-4.74L223.97-4.74Q225.41-6.78 225.98-10.18L225.98-10.18L229.44-28.93L229.44-28.93Q228.10-30.08 225.73-30.08ZM285.12-20.61L298.05-21.76L298.05-21.76Q293.44-11.65 293.44 0.06L293.44 0.06L293.44 0.06Q291.71 1.28 289.18 1.28L289.18 1.28L289.18 1.28Q286.66 1.28 285.06 0.10L285.06 0.10L285.06 0.10Q283.46-1.09 283.14-2.30L283.14-2.30L283.14-2.30Q281.54-0.64 278.94 0.32L278.94 0.32L278.94 0.32Q276.35 1.28 273.60 1.28L273.60 1.28L273.60 1.28Q270.85 1.28 268.45 0.38L268.45 0.38L268.45 0.38Q266.05-0.51 264.19-2.50L264.19-2.50L264.19-2.50Q260.10-6.85 260.10-15.10L260.10-15.10L260.10-15.10Q260.10-27.90 266.94-35.58L266.94-35.58L266.94-35.58Q273.98-43.52 286.46-43.52L286.46-43.52L286.46-43.52Q295.10-43.52 298.18-39.04L298.18-39.04L298.18-39.04Q299.14-37.63 299.14-35.94L299.14-35.94L299.14-35.94Q299.14-34.24 298.40-32.80L298.40-32.80L298.40-32.80Q297.66-31.36 296.51-30.21L296.51-30.21L296.51-30.21Q293.76-27.65 290.37-27.65L290.37-27.65L290.37-27.65Q289.02-27.65 287.74-28.10L287.74-28.10L287.74-28.10Q288-30.02 288-32.26L288-32.26L288-32.26Q288-34.50 287.84-35.52L287.84-35.52L287.84-35.52Q287.68-36.54 287.30-37.38L287.30-37.38L287.30-37.38Q286.46-39.10 284.64-39.10L284.64-39.10L284.64-39.10Q282.82-39.10 280.80-37.15L280.80-37.15L280.80-37.15Q278.78-35.20 277.18-32L277.18-32L277.18-32Q273.66-24.83 273.66-16.19L273.66-16.19L273.66-16.19Q273.66-12.22 275.20-9.41L275.20-9.41L275.20-9.41Q276.86-6.34 279.81-6.34L279.81-6.34L279.81-6.34Q280.83-6.34 281.76-6.85L281.76-6.85L281.76-6.85Q282.69-7.36 283.07-7.74L283.07-7.74L285.12-20.61ZM321.73-2.69L321.73-2.69L321.73-2.69Q318.66 1.28 311.04 1.28L311.04 1.28L311.04 1.28Q307.07 1.28 304.19-1.12L304.19-1.12L304.19-1.12Q301.31-3.52 301.31-6.98L301.31-6.98L301.31-6.98Q301.31-8.90 301.50-9.86L301.50-9.86L305.79-32.64L318.78-33.92L314.11-9.22L314.11-9.22Q313.86-7.81 313.86-6.98L313.86-6.98L313.86-6.98Q313.86-3.26 316.10-3.26L316.10-3.26L316.10-3.26Q318.59-3.26 320.38-6.66L320.38-6.66L320.38-6.66Q320.96-7.74 321.22-9.15L321.22-9.15L325.76-32.64L338.37-33.92L333.63-8.96L333.63-8.96Q333.44-8 333.44-6.98L333.44-6.98L333.44-6.98Q333.44-5.95 334.02-4.83L334.02-4.83L334.02-4.83Q334.59-3.71 336.45-3.46L336.45-3.46L336.45-3.46Q336.06-1.92 334.72-0.90L334.72-0.90L334.72-0.90Q331.90 1.28 328.86 1.28L328.86 1.28L328.86 1.28Q325.82 1.28 324.03 0.19L324.03 0.19L324.03 0.19Q322.24-0.90 321.73-2.69ZM357.18-3.52L357.18-3.52L357.18-3.52Q355.20 1.28 348.86 1.28L348.86 1.28L348.86 1.28Q345.60 1.28 343.55-0.96L343.55-0.96L343.55-0.96Q341.82-2.94 341.82-4.93L341.82-4.93L341.82-4.93Q341.82-10.11 344.19-20.22L344.19-20.22L346.56-32.64L359.55-33.92L355.65-13.70L355.65-13.70Q354.56-8.96 354.56-7.30L354.56-7.30L354.56-7.30Q354.56-3.65 357.18-3.52ZM347.71-41.54L347.71-41.54L347.71-41.54Q347.71-44.03 349.79-45.38L349.79-45.38L349.79-45.38Q351.87-46.72 354.88-46.72L354.88-46.72L354.88-46.72Q357.89-46.72 359.71-45.38L359.71-45.38L359.71-45.38Q361.54-44.03 361.54-41.54L361.54-41.54L361.54-41.54Q361.54-39.04 359.52-37.76L359.52-37.76L359.52-37.76Q357.50-36.48 354.50-36.48L354.50-36.48L354.50-36.48Q351.49-36.48 349.60-37.76L349.60-37.76L349.60-37.76Q347.71-39.04 347.71-41.54ZM377.92-3.52L377.92-3.52L377.92-3.52Q375.94 1.28 369.60 1.28L369.60 1.28L369.60 1.28Q366.40 1.28 364.35-0.96L364.35-0.96L364.35-0.96Q362.69-2.82 362.69-4.93L362.69-4.93L362.69-4.93Q362.69-9.73 364.93-20.22L364.93-20.22L369.60-44.80L382.59-46.08L376.38-13.70L376.38-13.70Q375.30-8.96 375.30-7.30L375.30-7.30L375.30-7.30Q375.30-3.65 377.92-3.52ZM408.32-37.12L408.32-37.12L408.32-37.12Q409.22-38.66 409.22-40.32L409.22-40.32L409.22-40.32Q409.22-43.26 407.42-43.26L407.42-43.26L407.42-43.26Q404.67-43.26 403.52-37.63L403.52-37.63L402.56-32.64L408.38-32.64L408-29.76L401.98-29.76L396.22 0L383.30 1.28L389.44-29.76L384.90-29.76L385.47-32.64L389.95-32.64L391.30-37.70L391.30-37.70Q392.45-42.37 397.38-44.54L397.38-44.54L397.38-44.54Q400.96-46.08 406.98-46.08L406.98-46.08L406.98-46.08Q412.99-46.08 415.68-44.54L415.68-44.54L415.68-44.54Q418.37-43.01 418.37-40.96L418.37-40.96L418.37-40.96Q418.37-38.91 416.77-37.63L416.77-37.63L416.77-37.63Q415.17-36.35 413.38-36.35L413.38-36.35L413.38-36.35Q409.86-36.35 408.32-37.12ZM421.25 1.28L421.25 1.28L421.25 1.28Q407.17 1.28 407.17-11.97L407.17-11.97L407.17-11.97Q407.17-21.38 412.35-27.46L412.35-27.46L412.35-27.46Q417.86-33.92 427.39-33.92L427.39-33.92L427.39-33.92Q434.30-33.92 437.82-30.72L437.82-30.72L437.82-30.72Q441.34-27.52 441.34-20.80L441.34-20.80L441.34-20.80Q441.34-10.56 435.84-4.61L435.84-4.61L435.84-4.61Q430.46 1.28 421.25 1.28ZM422.91-26.56L422.91-26.56L422.91-26.56Q422.14-24.83 421.54-22.24L421.54-22.24L421.54-22.24Q420.93-19.65 420.16-15.55L420.16-15.55L420.16-15.55Q419.39-11.46 419.39-6.40L419.39-6.40L419.39-6.40Q419.39-4.74 419.94-3.65L419.94-3.65L419.94-3.65Q420.48-2.56 421.95-2.56L421.95-2.56L421.95-2.56Q423.42-2.56 424.35-3.26L424.35-3.26L424.35-3.26Q425.28-3.97 425.98-5.63L425.98-5.63L425.98-5.63Q427.26-8.58 428.29-14.05L428.29-14.05L428.29-14.05Q429.31-19.52 429.41-21.89L429.41-21.89L429.41-21.89Q429.50-24.26 429.50-26.02L429.50-26.02L429.50-26.02Q429.50-27.78 428.99-28.93L428.99-28.93L428.99-28.93Q428.48-30.08 427.04-30.08L427.04-30.08L427.04-30.08Q425.60-30.08 424.64-29.18L424.64-29.18L424.64-29.18Q423.68-28.29 422.91-26.56ZM465.47-7.23L465.47-7.23L465.47-7.23Q462.14-3.78 456.06-3.78L456.06-3.78L456.06-3.78Q448.45-3.78 446.85-9.34L446.85-9.34L446.85-9.34Q446.34-11.01 446.34-12.86L446.34-12.86L446.34-12.86Q446.34-14.72 446.72-16.64L446.72-16.64L449.73-32.64L462.72-33.92L459.20-15.30L459.20-15.30Q459.07-14.46 458.88-13.57L458.88-13.57L458.88-13.57Q458.69-12.67 458.69-11.74L458.69-11.74L458.69-11.74Q458.69-10.82 459.01-10.21L459.01-10.21L459.01-10.21Q459.33-9.60 459.78-9.22L459.78-9.22L459.78-9.22Q460.54-8.70 461.92-8.70L461.92-8.70L461.92-8.70Q463.30-8.70 464.48-10.37L464.48-10.37L464.48-10.37Q465.66-12.03 466.24-14.91L466.24-14.91L469.76-32.64L482.37-33.92L477.57-8.77L477.57-8.77Q475.20 3.52 470.34 8.38L470.34 8.38L470.34 8.38Q467.84 10.88 464.61 11.87L464.61 11.87L464.61 11.87Q461.38 12.86 457.22 12.86L457.22 12.86L457.22 12.86Q450.50 12.86 446.66 10.75L446.66 10.75L446.66 10.75Q442.82 8.64 442.82 5.12L442.82 5.12L442.82 5.12Q442.82 2.50 444.80 0.99L444.80 0.99L444.80 0.99Q446.78-0.51 449.86-0.51L449.86-0.51L449.86-0.51Q452.54-0.51 454.59 0.64L454.59 0.64L454.59 0.64Q455.81 1.34 456.38 2.24L456.38 2.24L456.38 2.24Q454.91 3.52 454.91 5.63L454.91 5.63L454.91 5.63Q454.91 8.45 457.47 8.45L457.47 8.45L457.47 8.45Q461.70 8.45 464.13-1.28L464.13-1.28L464.13-1.28Q464.83-4.16 465.47-7.23ZM499.97-3.52L499.97-3.52L499.97-3.52Q497.98 1.28 491.65 1.28L491.65 1.28L491.65 1.28Q488.45 1.28 486.40-0.96L486.40-0.96L486.40-0.96Q484.74-2.82 484.74-4.93L484.74-4.93L484.74-4.93Q484.74-9.73 486.98-20.22L486.98-20.22L491.65-44.80L504.64-46.08L498.43-13.70L498.43-13.70Q497.34-8.96 497.34-7.30L497.34-7.30L497.34-7.30Q497.34-3.65 499.97-3.52ZM531.33-10.82L531.33-10.82L531.33-10.82Q532.93-9.73 532.93-7.33L532.93-7.33L532.93-7.33Q532.93-4.93 531.71-3.39L531.71-3.39L531.71-3.39Q530.50-1.86 528.51-0.83L528.51-0.83L528.51-0.83Q524.42 1.28 520 1.28L520 1.28L520 1.28Q515.58 1.28 512.99 0.32L512.99 0.32L512.99 0.32Q510.40-0.64 508.67-2.43L508.67-2.43L508.67-2.43Q505.28-5.82 505.28-12.03L505.28-12.03L505.28-12.03Q505.28-21.70 510.53-27.58L510.53-27.58L510.53-27.58Q516.16-33.92 525.95-33.92L525.95-33.92L525.95-33.92Q532.03-33.92 535.04-31.36L535.04-31.36L535.04-31.36Q537.28-29.44 537.28-26.30L537.28-26.30L537.28-26.30Q537.28-15.04 517.82-15.04L517.82-15.04L517.82-15.04Q517.57-13.38 517.57-11.97L517.57-11.97L517.57-11.97Q517.57-9.02 518.88-7.90L518.88-7.90L518.88-7.90Q520.19-6.78 522.62-6.78L522.62-6.78L522.62-6.78Q525.06-6.78 527.65-7.90L527.65-7.90L527.65-7.90Q530.24-9.02 531.33-10.82ZM518.27-17.79L518.27-17.79L518.27-17.79Q522.82-17.79 525.44-20.61L525.44-20.61L525.44-20.61Q528.06-23.30 528.06-27.58L528.06-27.58L528.06-27.58Q528.06-29.06 527.52-29.86L527.52-29.86L527.52-29.86Q526.98-30.66 525.89-30.66L525.89-30.66L525.89-30.66Q524.80-30.66 523.87-30.24L523.87-30.24L523.87-30.24Q522.94-29.82 521.98-28.42L521.98-28.42L521.98-28.42Q519.62-25.22 518.27-17.79Z" fill="#444"></path></g></g>&gt;</svg>