<svg xmlns="http://www.w3.org/2000/svg" style="background: none;" preserveAspectRatio="xMidYMid" viewBox="-131.92 5 764.63 148"><defs><filter id="editing-vr"><feFlood flood-color="rgba(0%,0%,0%,0)" flood-opacity="0.7" result="c1"></feFlood><feFlood flood-color="#ff0000" flood-opacity="0.7" result="c3"></feFlood><feComposite operator="in" in="c1" in2="SourceAlpha" result="text-c1"></feComposite><feComposite operator="in" in="c3" in2="SourceAlpha" result="text-c3"></feComposite><feOffset in="text-c1" dx="8" dy="-1" result="text1"></feOffset><feOffset in="text-c3" dx="-8" dy="1" result="text3"></feOffset><feBlend in="SourceGraphic" in2="text1" mode="multiply" result="text4"></feBlend><feBlend in="text4" in2="text3" mode="multiply"></feBlend></filter></defs><g filter="url(#editing-vr)"><g transform="translate(-133.5000091791153, 149)"><path d="M88.80-30.80L88.80-30.80L88.80-30.80Q92.60-26 92.60-18.20L92.60-18.20L92.60-18.20Q92.60-7.40 84.60-1.70L84.60-1.70L84.60-1.70Q76.60 4 64 4L64 4L64 4Q56.80 4 45.80 2.40L45.80 2.40L45.80 2.40Q24.20-1 17.60-1L17.60-1L17.60-1Q11-1 8.40-0.70L8.40-0.70L8.40-0.70Q5.80-0.40 1.60 0L1.60 0L26.20-132L112.40-132L112.40-132Q112.40-119.80 106.50-113.40L106.50-113.40L106.50-113.40Q100.60-107 89-107L89-107L89-107Q77.40-107 65.60-112.40L65.60-112.40L59.40-77.40L95-77.40L95-77.40Q95-66.80 89.80-60.90L89.80-60.90L89.80-60.90Q84.60-55 75.90-55L75.90-55L75.90-55Q67.20-55 61.80-57L61.80-57L61.80-57Q56.40-59 55.80-59.60L55.80-59.60L48.60-21.80L48.60-21.80Q53.40-21.20 62.40-21.20L62.40-21.20L62.40-21.20Q77.80-21.20 88.80-30.80ZM174-106L174-106L174-106Q181.20-106 186.80-104.40L186.80-104.40L186.80-104.40Q187-105.20 187.40-107.40L187.40-107.40L188.40-113.60L188.40-113.60Q189.20-117.60 190.40-124.20L190.40-124.20L193.60-140L233.40-144L211.20-28L211.20-28Q211-26.80 211-24.80L211-24.80L211-21.60L211-21.60Q211-17.20 213.20-13.90L213.20-13.90L213.20-13.90Q215.40-10.60 219-10.60L219-10.60L219-10.60Q215-1.20 202.80 2.80L202.80 2.80L202.80 2.80Q198.60 4 192.70 4L192.70 4L192.70 4Q186.80 4 181.40 0.90L181.40 0.90L181.40 0.90Q176-2.20 174.40-7.40L174.40-7.40L174.40-7.40Q171.20-2.20 164.80 0.90L164.80 0.90L164.80 0.90Q158.40 4 149.10 4L149.10 4L149.10 4Q139.80 4 132.10 1.60L132.10 1.60L132.10 1.60Q124.40-0.80 119.60-6L119.60-6L119.60-6Q110.80-16.20 110.80-39.40L110.80-39.40L110.80-39.40Q110.80-69.40 128.40-87.60L128.40-87.60L128.40-87.60Q146-106 174-106ZM172.60-94L172.60-94L172.60-94Q165.20-94 161.20-86L161.20-86L161.20-86Q157.20-78 153.10-58.20L153.10-58.20L153.10-58.20Q149-38.40 149-20.60L149-20.60L149-20.60Q149-8.40 156.20-8.40L156.20-8.40L156.20-8.40Q162.60-8.40 167.10-14.80L167.10-14.80L167.10-14.80Q171.60-21.20 173.40-31.80L173.40-31.80L184.20-90.40L184.20-90.40Q180-94 172.60-94ZM385.20-33.40L385.20-33.40Q372-15.20 359.30-5.60L359.30-5.60L359.30-5.60Q346.60 4 333.50 4L333.50 4L333.50 4Q320.40 4 315.80 1.40L315.80 1.40L315.80-42.60L315.80-42.60Q304.40-12.20 284-0.40L284-0.40L284-0.40Q276.60 4 269.60 4L269.60 4L269.60 4Q256.20 4 250.40 1.40L250.40 1.40L250.40 1.40Q249.00-44.40 247.80-57.10L247.80-57.10L247.80-57.10Q246.60-69.80 245.60-77.60L245.60-77.60L245.60-77.60Q243.60-93.20 236.80-99.60L236.80-99.60L236.80-99.60Q245.40-106 257.40-106L257.40-106L257.40-106Q280.60-106 283.80-77.20L283.80-77.20L283.80-77.20Q284.60-70.40 284.60-63.20L284.60-63.20L284.60-63.20Q284.60-52.40 282.20-14.80L282.20-14.80L282.20-14.80Q287-17 292.10-24.90L292.10-24.90L292.10-24.90Q297.20-32.80 301.40-43.60L301.40-43.60L301.40-43.60Q310.80-68.60 310.80-90.20L310.80-90.20L310.80-90.20Q310.80-93.60 309.90-97.20L309.90-97.20L309.90-97.20Q309-100.80 308-101.80L308-101.80L308-101.80Q315-106 325.70-106L325.70-106L325.70-106Q336.40-106 341.50-98.70L341.50-98.70L341.50-98.70Q346.60-91.40 348-78L348-78L348-78Q349.60-61 349.60-50.80L349.60-50.80L349.60-50.80Q349.60-36.60 348.20-15.60L348.20-15.60L348.20-15.60Q358.20-22.80 366.40-46.40L366.40-46.40L366.40-46.40Q374.60-70 374.60-86.80L374.60-86.80L374.60-86.80Q374.60-94.20 373.40-98.60L373.40-98.60L373.40-98.60Q380-106 391.40-106L391.40-106L391.40-106Q398.40-106 403.50-102.20L403.50-102.20L403.50-102.20Q408.60-98.40 408.60-91.30L408.60-91.30L408.60-91.30Q408.60-84.20 406.50-76.60L406.50-76.60L406.50-76.60Q404.40-69 401-61.20L401-61.20L401-61.20Q394.40-45.60 385.20-33.40L385.20-33.40ZM422.70-6L422.70-6L422.70-6Q418-11.20 415.90-19.40L415.90-19.40L415.90-19.40Q413.80-27.60 413.80-41L413.80-41L413.80-41Q413.80-54.40 418.40-66.60L418.40-66.60L418.40-66.60Q423-78.80 431.40-87.60L431.40-87.60L431.40-87.60Q448.60-106 477-106L477-106L477-106Q487.20-106 494.60-102.60L494.60-102.60L528.80-106L514-28L514-28Q513.40-25.60 513.40-21.20L513.40-21.20L513.40-21.20Q513.40-16.80 516.10-14L516.10-14L516.10-14Q518.80-11.20 522.80-10.80L522.80-10.80L522.80-10.80Q520.80-4 513.50 0L513.50 0L513.50 0Q506.20 4 498 4L498 4L498 4Q489.80 4 484.30 0.90L484.30 0.90L484.30 0.90Q478.80-2.20 477.20-7.40L477.20-7.40L477.20-7.40Q474-2.40 467.20 0.80L467.20 0.80L467.20 0.80Q460.40 4 451.30 4L451.30 4L451.30 4Q442.20 4 434.80 1.60L434.80 1.60L434.80 1.60Q427.40-0.80 422.70-6ZM464.90-87.20L464.90-87.20L464.90-87.20Q462.60-83.60 460.60-77.50L460.60-77.50L460.60-77.50Q458.60-71.40 455.30-55.10L455.30-55.10L455.30-55.10Q452-38.80 452-27.20L452-27.20L452-27.20Q452-15.60 453.80-12.20L453.80-12.20L453.80-12.20Q455.60-8.80 458.80-8.80L458.80-8.80L458.80-8.80Q465.20-8.80 469.90-14.90L469.90-14.90L469.90-14.90Q474.60-21 476.40-31.80L476.40-31.80L487-90.40L487-90.40Q482.80-94 477.90-94L477.90-94L477.90-94Q473-94 470.10-92.40L470.10-92.40L470.10-92.40Q467.20-90.80 464.90-87.20ZM602.20-56.20L602.20-56.20L602.20-56.20Q609.40-69 609.40-82L609.40-82L609.40-82Q609.40-90.60 603.20-90.60L603.20-90.60L603.20-90.60Q598.40-90.60 593.40-82.40L593.40-82.40L593.40-82.40Q588.20-74.20 586.60-63.60L586.60-63.60L576.20 0L534.80 4L555.20-102L588.20-106L584.60-85.80L584.60-85.80Q594.40-106 616.40-106L616.40-106L616.40-106Q628-106 634.30-100L634.30-100L634.30-100Q640.60-94 640.60-81.70L640.60-81.70L640.60-81.70Q640.60-69.40 632.50-61.60L632.50-61.60L632.50-61.60Q624.40-53.80 610.60-53.80L610.60-53.80L610.60-53.80Q604.60-53.80 602.20-56.20ZM706.80-106L706.80-106L706.80-106Q714.00-106 719.60-104.40L719.60-104.40L719.60-104.40Q719.80-105.20 720.20-107.40L720.20-107.40L721.20-113.60L721.20-113.60Q722.00-117.60 723.20-124.20L723.20-124.20L726.40-140L766.20-144L744.00-28L744.00-28Q743.80-26.80 743.80-24.80L743.80-24.80L743.80-21.60L743.80-21.60Q743.80-17.20 746.00-13.90L746.00-13.90L746.00-13.90Q748.20-10.60 751.80-10.60L751.80-10.60L751.80-10.60Q747.80-1.20 735.60 2.80L735.60 2.80L735.60 2.80Q731.40 4 725.50 4L725.50 4L725.50 4Q719.60 4 714.20 0.90L714.20 0.90L714.20 0.90Q708.80-2.20 707.20-7.40L707.20-7.40L707.20-7.40Q704.00-2.20 697.60 0.90L697.60 0.90L697.60 0.90Q691.20 4 681.90 4L681.90 4L681.90 4Q672.60 4 664.90 1.60L664.90 1.60L664.90 1.60Q657.20-0.80 652.40-6L652.40-6L652.40-6Q643.60-16.20 643.60-39.40L643.60-39.40L643.60-39.40Q643.60-69.40 661.20-87.60L661.20-87.60L661.20-87.60Q678.80-106 706.80-106ZM705.40-94L705.40-94L705.40-94Q698.00-94 694.00-86L694.00-86L694.00-86Q690.00-78 685.90-58.20L685.90-58.20L685.90-58.20Q681.80-38.40 681.80-20.60L681.80-20.60L681.80-20.60Q681.80-8.40 689.00-8.40L689.00-8.40L689.00-8.40Q695.40-8.40 699.90-14.80L699.90-14.80L699.90-14.80Q704.40-21.20 706.20-31.80L706.20-31.80L717.00-90.40L717.00-90.40Q712.80-94 705.40-94Z" fill="#420d00"></path></g></g><style>text {   font-size: 64px;   font-family: Arial Black;   dominant-baseline: central;   text-anchor: middle; }</style></svg>