<svg xmlns="http://www.w3.org/2000/svg" viewBox="-355.4750061035156 37.44000244140625 1200.949951171875 132.20001220703125" style="background: none;" preserveAspectRatio="xMidYMid"><defs><filter id="editing-vr"><feFlood flood-color="rgba(0%,0%,0%,0)" flood-opacity="0.7" result="c1"></feFlood><feFlood flood-color="#00000" flood-opacity="0.7" result="c3"></feFlood><feComposite operator="in" in="c1" in2="SourceAlpha" result="text-c1"></feComposite><feComposite operator="in" in="c3" in2="SourceAlpha" result="text-c3"></feComposite><feOffset in="text-c1" dx="9" dy="-1" result="text1"></feOffset><feOffset in="text-c3" dx="-9" dy="1" result="text3"></feOffset><feBlend in="SourceGraphic" in2="text1" mode="multiply" result="text4"></feBlend><feBlend in="text4" in2="text3" mode="multiply"></feBlend></filter></defs><g filter="url(#editing-vr)"><g transform="translate(-346.6150060892105, 141.10000658035278)"><path d="M63.05-21.87L63.05-21.87L63.05-21.87Q65.75-18.46 65.75-12.92L65.75-12.92L65.75-12.92Q65.75-5.25 60.07-1.21L60.07-1.21L60.07-1.21Q54.39 2.84 45.44 2.84L45.44 2.84L45.44 2.84Q40.33 2.84 32.52 1.70L32.52 1.70L32.52 1.70Q17.18-0.71 12.50-0.71L12.50-0.71L12.50-0.71Q7.81-0.71 5.96-0.50L5.96-0.50L5.96-0.50Q4.12-0.28 1.14 0L1.14 0L18.60-93.72L79.80-93.72L79.80-93.72Q79.80-85.06 75.62-80.51L75.62-80.51L75.62-80.51Q71.43-75.97 63.19-75.97L63.19-75.97L63.19-75.97Q54.95-75.97 46.58-79.80L46.58-79.80L42.17-54.95L67.45-54.95L67.45-54.95Q67.45-47.43 63.76-43.24L63.76-43.24L63.76-43.24Q60.07-39.05 53.89-39.05L53.89-39.05L53.89-39.05Q47.71-39.05 43.88-40.47L43.88-40.47L43.88-40.47Q40.04-41.89 39.62-42.32L39.62-42.32L34.51-15.48L34.51-15.48Q37.91-15.05 44.30-15.05L44.30-15.05L44.30-15.05Q55.24-15.05 63.05-21.87ZM123.54-75.26L123.54-75.26L123.54-75.26Q128.65-75.26 132.63-74.12L132.63-74.12L132.63-74.12Q132.77-74.69 133.05-76.25L133.05-76.25L133.76-80.66L133.76-80.66Q134.33-83.50 135.18-88.18L135.18-88.18L137.46-99.40L165.71-102.24L149.95-19.88L149.95-19.88Q149.81-19.03 149.81-17.61L149.81-17.61L149.81-15.34L149.81-15.34Q149.81-12.21 151.37-9.87L151.37-9.87L151.37-9.87Q152.93-7.53 155.49-7.53L155.49-7.53L155.49-7.53Q152.65-0.85 143.99 1.99L143.99 1.99L143.99 1.99Q141.01 2.84 136.82 2.84L136.82 2.84L136.82 2.84Q132.63 2.84 128.79 0.64L128.79 0.64L128.79 0.64Q124.96-1.56 123.82-5.25L123.82-5.25L123.82-5.25Q121.55-1.56 117.01 0.64L117.01 0.64L117.01 0.64Q112.46 2.84 105.86 2.84L105.86 2.84L105.86 2.84Q99.26 2.84 93.79 1.14L93.79 1.14L93.79 1.14Q88.32-0.57 84.92-4.26L84.92-4.26L84.92-4.26Q78.67-11.50 78.67-27.97L78.67-27.97L78.67-27.97Q78.67-49.27 91.16-62.20L91.16-62.20L91.16-62.20Q103.66-75.26 123.54-75.26ZM122.55-66.74L122.55-66.74L122.55-66.74Q117.29-66.74 114.45-61.06L114.45-61.06L114.45-61.06Q111.61-55.38 108.70-41.32L108.70-41.32L108.70-41.32Q105.79-27.26 105.79-14.63L105.79-14.63L105.79-14.63Q105.79-5.96 110.90-5.96L110.90-5.96L110.90-5.96Q115.45-5.96 118.64-10.51L118.64-10.51L118.64-10.51Q121.84-15.05 123.11-22.58L123.11-22.58L130.78-64.18L130.78-64.18Q127.80-66.74 122.55-66.74ZM273.49-23.71L273.49-23.71Q264.12-10.79 255.10-3.98L255.10-3.98L255.10-3.98Q246.09 2.84 236.79 2.84L236.79 2.84L236.79 2.84Q227.48 2.84 224.22 0.99L224.22 0.99L224.22-30.25L224.22-30.25Q216.12-8.66 201.64-0.28L201.64-0.28L201.64-0.28Q196.39 2.84 191.42 2.84L191.42 2.84L191.42 2.84Q181.90 2.84 177.78 0.99L177.78 0.99L177.78 0.99Q176.79-31.52 175.94-40.54L175.94-40.54L175.94-40.54Q175.09-49.56 174.38-55.10L174.38-55.10L174.38-55.10Q172.96-66.17 168.13-70.72L168.13-70.72L168.13-70.72Q174.23-75.26 182.75-75.26L182.75-75.26L182.75-75.26Q199.23-75.26 201.50-54.81L201.50-54.81L201.50-54.81Q202.07-49.98 202.07-44.87L202.07-44.87L202.07-44.87Q202.07-37.20 200.36-10.51L200.36-10.51L200.36-10.51Q203.77-12.07 207.39-17.68L207.39-17.68L207.39-17.68Q211.01-23.29 213.99-30.96L213.99-30.96L213.99-30.96Q220.67-48.71 220.67-64.04L220.67-64.04L220.67-64.04Q220.67-66.46 220.03-69.01L220.03-69.01L220.03-69.01Q219.39-71.57 218.68-72.28L218.68-72.28L218.68-72.28Q223.65-75.26 231.25-75.26L231.25-75.26L231.25-75.26Q238.84-75.26 242.47-70.08L242.47-70.08L242.47-70.08Q246.09-64.89 247.08-55.38L247.08-55.38L247.08-55.38Q248.22-43.31 248.22-36.07L248.22-36.07L248.22-36.07Q248.22-25.99 247.22-11.08L247.22-11.08L247.22-11.08Q254.32-16.19 260.14-32.94L260.14-32.94L260.14-32.94Q265.97-49.70 265.97-61.63L265.97-61.63L265.97-61.63Q265.97-66.88 265.11-70.01L265.11-70.01L265.11-70.01Q269.80-75.26 277.89-75.26L277.89-75.26L277.89-75.26Q282.86-75.26 286.49-72.56L286.49-72.56L286.49-72.56Q290.11-69.86 290.11-64.82L290.11-64.82L290.11-64.82Q290.11-59.78 288.62-54.39L288.62-54.39L288.62-54.39Q287.12-48.99 284.71-43.45L284.71-43.45L284.71-43.45Q280.02-32.38 273.49-23.71L273.49-23.71ZM300.12-4.26L300.12-4.26L300.12-4.26Q296.78-7.95 295.29-13.77L295.29-13.77L295.29-13.77Q293.80-19.60 293.80-29.11L293.80-29.11L293.80-29.11Q293.80-38.62 297.06-47.29L297.06-47.29L297.06-47.29Q300.33-55.95 306.29-62.20L306.29-62.20L306.29-62.20Q318.51-75.26 338.67-75.26L338.67-75.26L338.67-75.26Q345.91-75.26 351.17-72.85L351.17-72.85L375.45-75.26L364.94-19.88L364.94-19.88Q364.51-18.18 364.51-15.05L364.51-15.05L364.51-15.05Q364.51-11.93 366.43-9.94L366.43-9.94L366.43-9.94Q368.35-7.95 371.19-7.67L371.19-7.67L371.19-7.67Q369.77-2.84 364.59 0L364.59 0L364.59 0Q359.40 2.84 353.58 2.84L353.58 2.84L353.58 2.84Q347.76 2.84 343.85 0.64L343.85 0.64L343.85 0.64Q339.95-1.56 338.81-5.25L338.81-5.25L338.81-5.25Q336.54-1.70 331.71 0.57L331.71 0.57L331.71 0.57Q326.88 2.84 320.42 2.84L320.42 2.84L320.42 2.84Q313.96 2.84 308.71 1.14L308.71 1.14L308.71 1.14Q303.45-0.57 300.12-4.26ZM330.08-61.91L330.08-61.91L330.08-61.91Q328.45-59.36 327.03-55.03L327.03-55.03L327.03-55.03Q325.61-50.69 323.26-39.12L323.26-39.12L323.26-39.12Q320.92-27.55 320.92-19.31L320.92-19.31L320.92-19.31Q320.92-11.08 322.20-8.66L322.20-8.66L322.20-8.66Q323.48-6.25 325.75-6.25L325.75-6.25L325.75-6.25Q330.29-6.25 333.63-10.58L333.63-10.58L333.63-10.58Q336.97-14.91 338.24-22.58L338.24-22.58L345.77-64.18L345.77-64.18Q342.79-66.74 339.31-66.74L339.31-66.74L339.31-66.74Q335.83-66.74 333.77-65.60L333.77-65.60L333.77-65.60Q331.71-64.47 330.08-61.91ZM427.56-39.90L427.56-39.90L427.56-39.90Q432.67-48.99 432.67-58.22L432.67-58.22L432.67-58.22Q432.67-64.33 428.27-64.33L428.27-64.33L428.27-64.33Q424.86-64.33 421.31-58.50L421.31-58.50L421.31-58.50Q417.62-52.68 416.49-45.16L416.49-45.16L409.10 0L379.71 2.84L394.19-72.42L417.62-75.26L415.07-60.92L415.07-60.92Q422.02-75.26 437.64-75.26L437.64-75.26L437.64-75.26Q445.88-75.26 450.35-71.00L450.35-71.00L450.35-71.00Q454.83-66.74 454.83-58.01L454.83-58.01L454.83-58.01Q454.83-49.27 449.07-43.74L449.07-43.74L449.07-43.74Q443.32-38.20 433.53-38.20L433.53-38.20L433.53-38.20Q429.27-38.20 427.56-39.90ZM501.83-75.26L501.83-75.26L501.83-75.26Q506.94-75.26 510.92-74.12L510.92-74.12L510.92-74.12Q511.06-74.69 511.34-76.25L511.34-76.25L512.05-80.66L512.05-80.66Q512.62-83.50 513.47-88.18L513.47-88.18L515.74-99.40L544.00-102.24L528.24-19.88L528.24-19.88Q528.10-19.03 528.10-17.61L528.10-17.61L528.10-15.34L528.10-15.34Q528.10-12.21 529.66-9.87L529.66-9.87L529.66-9.87Q531.22-7.53 533.78-7.53L533.78-7.53L533.78-7.53Q530.94-0.85 522.28 1.99L522.28 1.99L522.28 1.99Q519.29 2.84 515.11 2.84L515.11 2.84L515.11 2.84Q510.92 2.84 507.08 0.64L507.08 0.64L507.08 0.64Q503.25-1.56 502.11-5.25L502.11-5.25L502.11-5.25Q499.84-1.56 495.30 0.64L495.30 0.64L495.30 0.64Q490.75 2.84 484.15 2.84L484.15 2.84L484.15 2.84Q477.55 2.84 472.08 1.14L472.08 1.14L472.08 1.14Q466.61-0.57 463.20-4.26L463.20-4.26L463.20-4.26Q456.96-11.50 456.96-27.97L456.96-27.97L456.96-27.97Q456.96-49.27 469.45-62.20L469.45-62.20L469.45-62.20Q481.95-75.26 501.83-75.26ZM500.83-66.74L500.83-66.74L500.83-66.74Q495.58-66.74 492.74-61.06L492.74-61.06L492.74-61.06Q489.90-55.38 486.99-41.32L486.99-41.32L486.99-41.32Q484.08-27.26 484.08-14.63L484.08-14.63L484.08-14.63Q484.08-5.96 489.19-5.96L489.19-5.96L489.19-5.96Q493.73-5.96 496.93-10.51L496.93-10.51L496.93-10.51Q500.12-15.05 501.40-22.58L501.40-22.58L509.07-64.18L509.07-64.18Q506.09-66.74 500.83-66.74ZM632.61-45.72L661.29-48.28L661.29-48.28Q651.07-25.84 651.07 0.14L651.07 0.14L651.07 0.14Q647.24 2.84 641.63 2.84L641.63 2.84L641.63 2.84Q636.02 2.84 632.47 0.21L632.47 0.21L632.47 0.21Q628.92-2.41 628.21-5.11L628.21-5.11L628.21-5.11Q624.66-1.42 618.91 0.71L618.91 0.71L618.91 0.71Q613.16 2.84 607.05 2.84L607.05 2.84L607.05 2.84Q600.94 2.84 595.62 0.85L595.62 0.85L595.62 0.85Q590.29-1.14 586.18-5.54L586.18-5.54L586.18-5.54Q577.09-15.19 577.09-33.51L577.09-33.51L577.09-33.51Q577.09-61.91 592.28-78.95L592.28-78.95L592.28-78.95Q607.90-96.56 635.59-96.56L635.59-96.56L635.59-96.56Q654.76-96.56 661.58-86.62L661.58-86.62L661.58-86.62Q663.71-83.50 663.71-79.73L663.71-79.73L663.71-79.73Q663.71-75.97 662.08-72.78L662.08-72.78L662.08-72.78Q660.44-69.58 657.89-67.02L657.89-67.02L657.89-67.02Q651.78-61.34 644.25-61.34L644.25-61.34L644.25-61.34Q641.27-61.34 638.43-62.34L638.43-62.34L638.43-62.34Q639-66.60 639-71.57L639-71.57L639-71.57Q639-76.54 638.64-78.81L638.64-78.81L638.64-78.81Q638.29-81.08 637.44-82.93L637.44-82.93L637.44-82.93Q635.59-86.76 631.55-86.76L631.55-86.76L631.55-86.76Q627.50-86.76 623.03-82.43L623.03-82.43L623.03-82.43Q618.55-78.10 615.00-71.00L615.00-71.00L615.00-71.00Q607.19-55.10 607.19-35.93L607.19-35.93L607.19-35.93Q607.19-27.12 610.60-20.87L610.60-20.87L610.60-20.87Q614.29-14.06 620.82-14.06L620.82-14.06L620.82-14.06Q623.10-14.06 625.16-15.19L625.16-15.19L625.16-15.19Q627.21-16.33 628.07-17.18L628.07-17.18L632.61-45.72ZM713.83-5.96L713.83-5.96L713.83-5.96Q707.02 2.84 690.12 2.84L690.12 2.84L690.12 2.84Q681.32 2.84 674.93-2.49L674.93-2.49L674.93-2.49Q668.54-7.81 668.54-15.48L668.54-15.48L668.54-15.48Q668.54-19.74 668.96-21.87L668.96-21.87L678.48-72.42L707.30-75.26L696.94-20.45L696.94-20.45Q696.37-17.32 696.37-15.48L696.37-15.48L696.37-15.48Q696.37-7.24 701.34-7.24L701.34-7.24L701.34-7.24Q706.88-7.24 710.85-14.77L710.85-14.77L710.85-14.77Q712.13-17.18 712.70-20.31L712.70-20.31L722.78-72.42L750.75-75.26L740.25-19.88L740.25-19.88Q739.82-17.75 739.82-15.48L739.82-15.48L739.82-15.48Q739.82-13.21 741.10-10.72L741.10-10.72L741.10-10.72Q742.38-8.24 746.49-7.67L746.49-7.67L746.49-7.67Q745.64-4.26 742.66-1.99L742.66-1.99L742.66-1.99Q736.41 2.84 729.67 2.84L729.67 2.84L729.67 2.84Q722.92 2.84 718.95 0.43L718.95 0.43L718.95 0.43Q714.97-1.99 713.83-5.96ZM792.50-7.81L792.50-7.81L792.50-7.81Q788.10 2.84 774.04 2.84L774.04 2.84L774.04 2.84Q766.80 2.84 762.26-2.13L762.26-2.13L762.26-2.13Q758.42-6.53 758.42-10.93L758.42-10.93L758.42-10.93Q758.42-22.44 763.68-44.87L763.68-44.87L768.93-72.42L797.76-75.26L789.09-30.39L789.09-30.39Q786.68-19.88 786.68-16.19L786.68-16.19L786.68-16.19Q786.68-8.09 792.50-7.81ZM771.49-92.16L771.49-92.16L771.49-92.16Q771.49-97.70 776.10-100.68L776.10-100.68L776.10-100.68Q780.72-103.66 787.39-103.66L787.39-103.66L787.39-103.66Q794.06-103.66 798.11-100.68L798.11-100.68L798.11-100.68Q802.16-97.70 802.16-92.16L802.16-92.16L802.16-92.16Q802.16-86.62 797.69-83.78L797.69-83.78L797.69-83.78Q793.21-80.94 786.54-80.94L786.54-80.94L786.54-80.94Q779.86-80.94 775.68-83.78L775.68-83.78L775.68-83.78Q771.49-86.62 771.49-92.16ZM838.51-7.81L838.51-7.81L838.51-7.81Q834.11 2.84 820.05 2.84L820.05 2.84L820.05 2.84Q812.95 2.84 808.41-2.13L808.41-2.13L808.41-2.13Q804.71-6.25 804.71-10.93L804.71-10.93L804.71-10.93Q804.71-21.58 809.68-44.87L809.68-44.87L820.05-99.40L848.88-102.24L835.10-30.39L835.10-30.39Q832.69-19.88 832.69-16.19L832.69-16.19L832.69-16.19Q832.69-8.09 838.51-7.81ZM905.96-82.36L905.96-82.36L905.96-82.36Q907.95-85.77 907.95-89.46L907.95-89.46L907.95-89.46Q907.95-95.99 903.97-95.99L903.97-95.99L903.97-95.99Q897.87-95.99 895.31-83.50L895.31-83.50L893.18-72.42L906.10-72.42L905.25-66.03L891.90-66.03L879.12 0L850.44 2.84L864.07-66.03L853.99-66.03L855.27-72.42L865.21-72.42L868.19-83.64L868.19-83.64Q870.74-94.00 881.68-98.83L881.68-98.83L881.68-98.83Q889.63-102.24 902.98-102.24L902.98-102.24L902.98-102.24Q916.33-102.24 922.29-98.83L922.29-98.83L922.29-98.83Q928.25-95.42 928.25-90.88L928.25-90.88L928.25-90.88Q928.25-86.34 924.70-83.50L924.70-83.50L924.70-83.50Q921.15-80.66 917.18-80.66L917.18-80.66L917.18-80.66Q909.37-80.66 905.96-82.36ZM934.64 2.84L934.64 2.84L934.64 2.84Q903.40 2.84 903.40-26.55L903.40-26.55L903.40-26.55Q903.40-47.43 914.91-60.92L914.91-60.92L914.91-60.92Q927.12-75.26 948.28-75.26L948.28-75.26L948.28-75.26Q963.61-75.26 971.42-68.16L971.42-68.16L971.42-68.16Q979.23-61.06 979.23-46.15L979.23-46.15L979.23-46.15Q979.23-23.43 967.02-10.22L967.02-10.22L967.02-10.22Q955.09 2.84 934.64 2.84ZM938.34-58.93L938.34-58.93L938.34-58.93Q936.63-55.10 935.28-49.35L935.28-49.35L935.28-49.35Q933.93-43.59 932.23-34.51L932.23-34.51L932.23-34.51Q930.53-25.42 930.53-14.20L930.53-14.20L930.53-14.20Q930.53-10.51 931.73-8.09L931.73-8.09L931.73-8.09Q932.94-5.68 936.21-5.68L936.21-5.68L936.21-5.68Q939.47-5.68 941.53-7.24L941.53-7.24L941.53-7.24Q943.59-8.80 945.15-12.50L945.15-12.50L945.15-12.50Q947.99-19.03 950.26-31.17L950.26-31.17L950.26-31.17Q952.54-43.31 952.75-48.56L952.75-48.56L952.75-48.56Q952.96-53.82 952.96-57.72L952.96-57.72L952.96-57.72Q952.96-61.63 951.83-64.18L951.83-64.18L951.83-64.18Q950.69-66.74 947.50-66.74L947.50-66.74L947.50-66.74Q944.30-66.74 942.17-64.75L942.17-64.75L942.17-64.75Q940.04-62.76 938.34-58.93ZM1032.77-16.05L1032.77-16.05L1032.77-16.05Q1025.38-8.38 1011.89-8.38L1011.89-8.38L1011.89-8.38Q994.99-8.38 991.44-20.73L991.44-20.73L991.44-20.73Q990.31-24.42 990.31-28.54L990.31-28.54L990.31-28.54Q990.31-32.66 991.16-36.92L991.16-36.92L997.83-72.42L1026.66-75.26L1018.85-33.94L1018.85-33.94Q1018.57-32.09 1018.14-30.10L1018.14-30.10L1018.14-30.10Q1017.71-28.12 1017.71-26.06L1017.71-26.06L1017.71-26.06Q1017.71-24.00 1018.42-22.65L1018.42-22.65L1018.42-22.65Q1019.13-21.30 1020.13-20.45L1020.13-20.45L1020.13-20.45Q1021.83-19.31 1024.89-19.31L1024.89-19.31L1024.89-19.31Q1027.94-19.31 1030.57-23.00L1030.57-23.00L1030.57-23.00Q1033.19-26.70 1034.47-33.09L1034.47-33.09L1042.28-72.42L1070.25-75.26L1059.60-19.45L1059.60-19.45Q1054.35 7.81 1043.56 18.60L1043.56 18.60L1043.56 18.60Q1038.02 24.14 1030.85 26.34L1030.85 26.34L1030.85 26.34Q1023.68 28.54 1014.45 28.54L1014.45 28.54L1014.45 28.54Q999.54 28.54 991.02 23.86L991.02 23.86L991.02 23.86Q982.50 19.17 982.50 11.36L982.50 11.36L982.50 11.36Q982.50 5.54 986.90 2.20L986.90 2.20L986.90 2.20Q991.30-1.14 998.12-1.14L998.12-1.14L998.12-1.14Q1004.08-1.14 1008.63 1.42L1008.63 1.42L1008.63 1.42Q1011.32 2.98 1012.60 4.97L1012.60 4.97L1012.60 4.97Q1009.34 7.81 1009.34 12.50L1009.34 12.50L1009.34 12.50Q1009.34 18.74 1015.02 18.74L1015.02 18.74L1015.02 18.74Q1024.39 18.74 1029.78-2.84L1029.78-2.84L1029.78-2.84Q1031.35-9.23 1032.77-16.05ZM1109.30-7.81L1109.30-7.81L1109.30-7.81Q1104.90 2.84 1090.84 2.84L1090.84 2.84L1090.84 2.84Q1083.74 2.84 1079.20-2.13L1079.20-2.13L1079.20-2.13Q1075.51-6.25 1075.51-10.93L1075.51-10.93L1075.51-10.93Q1075.51-21.58 1080.48-44.87L1080.48-44.87L1090.84-99.40L1119.67-102.24L1105.90-30.39L1105.90-30.39Q1103.48-19.88 1103.48-16.19L1103.48-16.19L1103.48-16.19Q1103.48-8.09 1109.30-7.81ZM1178.88-24.00L1178.88-24.00L1178.88-24.00Q1182.43-21.58 1182.43-16.26L1182.43-16.26L1182.43-16.26Q1182.43-10.93 1179.74-7.53L1179.74-7.53L1179.74-7.53Q1177.04-4.12 1172.64-1.85L1172.64-1.85L1172.64-1.85Q1163.55 2.84 1153.75 2.84L1153.75 2.84L1153.75 2.84Q1143.95 2.84 1138.20 0.71L1138.20 0.71L1138.20 0.71Q1132.45-1.42 1128.62-5.40L1128.62-5.40L1128.62-5.40Q1121.09-12.92 1121.09-26.70L1121.09-26.70L1121.09-26.70Q1121.09-48.14 1132.73-61.20L1132.73-61.20L1132.73-61.20Q1145.23-75.26 1166.96-75.26L1166.96-75.26L1166.96-75.26Q1180.45-75.26 1187.12-69.58L1187.12-69.58L1187.12-69.58Q1192.09-65.32 1192.09-58.36L1192.09-58.36L1192.09-58.36Q1192.09-33.37 1148.92-33.37L1148.92-33.37L1148.92-33.37Q1148.35-29.68 1148.35-26.55L1148.35-26.55L1148.35-26.55Q1148.35-20.02 1151.27-17.54L1151.27-17.54L1151.27-17.54Q1154.18-15.05 1159.57-15.05L1159.57-15.05L1159.57-15.05Q1164.97-15.05 1170.72-17.54L1170.72-17.54L1170.72-17.54Q1176.47-20.02 1178.88-24.00ZM1149.92-39.48L1149.92-39.48L1149.92-39.48Q1160.00-39.48 1165.82-45.72L1165.82-45.72L1165.82-45.72Q1171.64-51.69 1171.64-61.20L1171.64-61.20L1171.64-61.20Q1171.64-64.47 1170.44-66.24L1170.44-66.24L1170.44-66.24Q1169.23-68.02 1166.81-68.02L1166.81-68.02L1166.81-68.02Q1164.40-68.02 1162.34-67.10L1162.34-67.10L1162.34-67.10Q1160.28-66.17 1158.15-63.05L1158.15-63.05L1158.15-63.05Q1152.90-55.95 1149.92-39.48Z" fill="#800080"></path></g></g><style>text {  font-size: 64px;  font-family: Arial Black;  dominant-baseline: central;  text-anchor: middle;}</style></svg>