<svg xmlns="http://www.w3.org/2000/svg" style="background: none;" preserveAspectRatio="xMidYMid" viewBox="-183.13 22.1 866.27 186.22"><defs><filter id="editing-vr"><feFlood flood-color="rgba(0%,0%,0%,0)" flood-opacity="0.7" result="c1"></feFlood><feFlood flood-color="#ff0000" flood-opacity="0.7" result="c3"></feFlood><feComposite operator="in" in="c1" in2="SourceAlpha" result="text-c1"></feComposite><feComposite operator="in" in="c3" in2="SourceAlpha" result="text-c3"></feComposite><feOffset in="text-c1" dx="8" dy="-1" result="text1"></feOffset><feOffset in="text-c3" dx="-8" dy="1" result="text3"></feOffset><feBlend in="SourceGraphic" in2="text1" mode="multiply" result="text4"></feBlend><feBlend in="text4" in2="text3" mode="multiply"></feBlend></filter></defs><g filter="url(#editing-vr)"><g transform="translate(-189.30000591278076, 168.0999984741211)"><path d="M84.40-64.40L124.80-68L124.80-68Q110.40-36.40 110.40 0.20L110.40 0.20L110.40 0.20Q105 4 97.10 4L97.10 4L97.10 4Q89.20 4 84.20 0.30L84.20 0.30L84.20 0.30Q79.20-3.40 78.20-7.20L78.20-7.20L78.20-7.20Q73.20-2 65.10 1L65.10 1L65.10 1Q57 4 48.40 4L48.40 4L48.40 4Q39.80 4 32.30 1.20L32.30 1.20L32.30 1.20Q24.80-1.60 19-7.80L19-7.80L19-7.80Q6.20-21.40 6.20-47.20L6.20-47.20L6.20-47.20Q6.20-87.20 27.60-111.20L27.60-111.20L27.60-111.20Q49.60-136 88.60-136L88.60-136L88.60-136Q115.60-136 125.20-122L125.20-122L125.20-122Q128.20-117.60 128.20-112.30L128.20-112.30L128.20-112.30Q128.20-107 125.90-102.50L125.90-102.50L125.90-102.50Q123.60-98 120-94.40L120-94.40L120-94.40Q111.40-86.40 100.80-86.40L100.80-86.40L100.80-86.40Q96.60-86.40 92.60-87.80L92.60-87.80L92.60-87.80Q93.40-93.80 93.40-100.80L93.40-100.80L93.40-100.80Q93.40-107.80 92.90-111L92.90-111L92.90-111Q92.40-114.20 91.20-116.80L91.20-116.80L91.20-116.80Q88.60-122.20 82.90-122.20L82.90-122.20L82.90-122.20Q77.20-122.20 70.90-116.10L70.90-116.10L70.90-116.10Q64.60-110 59.60-100L59.60-100L59.60-100Q48.60-77.60 48.60-50.60L48.60-50.60L48.60-50.60Q48.60-38.20 53.40-29.40L53.40-29.40L53.40-29.40Q58.60-19.80 67.80-19.80L67.80-19.80L67.80-19.80Q71-19.80 73.90-21.40L73.90-21.40L73.90-21.40Q76.80-23 78-24.20L78-24.20L84.40-64.40ZM198.80-8.40L198.80-8.40L198.80-8.40Q189.20 4 165.40 4L165.40 4L165.40 4Q153.00 4 144.00-3.50L144.00-3.50L144.00-3.50Q135.00-11 135.00-21.80L135.00-21.80L135.00-21.80Q135.00-27.80 135.60-30.80L135.60-30.80L149.00-102L189.60-106L175.00-28.80L175.00-28.80Q174.20-24.40 174.20-21.80L174.20-21.80L174.20-21.80Q174.20-10.20 181.20-10.20L181.20-10.20L181.20-10.20Q189.00-10.20 194.60-20.80L194.60-20.80L194.60-20.80Q196.40-24.20 197.20-28.60L197.20-28.60L211.40-102L250.80-106L236.00-28L236.00-28Q235.40-25 235.40-21.80L235.40-21.80L235.40-21.80Q235.40-18.60 237.20-15.10L237.20-15.10L237.20-15.10Q239.00-11.60 244.80-10.80L244.80-10.80L244.80-10.80Q243.60-6 239.40-2.80L239.40-2.80L239.40-2.80Q230.60 4 221.10 4L221.10 4L221.10 4Q211.60 4 206 0.60L206 0.60L206 0.60Q200.40-2.80 198.80-8.40ZM309.60-11L309.60-11L309.60-11Q303.40 4 283.60 4L283.60 4L283.60 4Q273.40 4 267.00-3L267.00-3L267.00-3Q261.60-9.20 261.60-15.40L261.60-15.40L261.60-15.40Q261.60-31.60 269.00-63.20L269.00-63.20L276.40-102L317.00-106L304.80-42.80L304.80-42.80Q301.40-28 301.40-22.80L301.40-22.80L301.40-22.80Q301.40-11.40 309.60-11ZM280.00-129.80L280.00-129.80L280.00-129.80Q280.00-137.60 286.50-141.80L286.50-141.80L286.50-141.80Q293.00-146 302.40-146L302.40-146L302.40-146Q311.80-146 317.50-141.80L317.50-141.80L317.50-141.80Q323.20-137.60 323.20-129.80L323.20-129.80L323.20-129.80Q323.20-122 316.90-118L316.90-118L316.90-118Q310.60-114 301.20-114L301.20-114L301.20-114Q291.80-114 285.90-118L285.90-118L285.90-118Q280.00-122 280.00-129.80ZM374.40-11L374.40-11L374.40-11Q368.20 4 348.40 4L348.40 4L348.40 4Q338.40 4 332.00-3L332.00-3L332.00-3Q326.80-8.80 326.80-15.40L326.80-15.40L326.80-15.40Q326.80-30.40 333.80-63.20L333.80-63.20L348.40-140L389.00-144L369.60-42.80L369.60-42.80Q366.20-28 366.20-22.80L366.20-22.80L366.20-22.80Q366.20-11.40 374.40-11ZM469.40-116L469.40-116L469.40-116Q472.20-120.80 472.20-126L472.20-126L472.20-126Q472.20-135.20 466.60-135.20L466.60-135.20L466.60-135.20Q458.00-135.20 454.40-117.60L454.40-117.60L451.40-102L469.60-102L468.40-93L449.60-93L431.60 0L391.20 4L410.40-93L396.20-93L398.00-102L412.00-102L416.20-117.80L416.20-117.80Q419.80-132.40 435.20-139.20L435.20-139.20L435.20-139.20Q446.40-144 465.20-144L465.20-144L465.20-144Q484.00-144 492.40-139.20L492.40-139.20L492.40-139.20Q500.80-134.40 500.80-128L500.80-128L500.80-128Q500.80-121.60 495.80-117.60L495.80-117.60L495.80-117.60Q490.80-113.60 485.20-113.60L485.20-113.60L485.20-113.60Q474.20-113.60 469.40-116ZM509.80 4L509.80 4L509.80 4Q465.80 4 465.80-37.40L465.80-37.40L465.80-37.40Q465.80-66.80 482.00-85.80L482.00-85.80L482.00-85.80Q499.20-106 529.00-106L529.00-106L529.00-106Q550.60-106 561.60-96L561.60-96L561.60-96Q572.60-86 572.60-65L572.60-65L572.60-65Q572.60-33 555.40-14.40L555.40-14.40L555.40-14.40Q538.60 4 509.80 4ZM515.00-83L515.00-83L515.00-83Q512.60-77.60 510.70-69.50L510.70-69.50L510.70-69.50Q508.80-61.40 506.40-48.60L506.40-48.60L506.40-48.60Q504.00-35.80 504.00-20L504.00-20L504.00-20Q504.00-14.80 505.70-11.40L505.70-11.40L505.70-11.40Q507.40-8 512.00-8L512.00-8L512.00-8Q516.60-8 519.50-10.20L519.50-10.20L519.50-10.20Q522.40-12.40 524.60-17.60L524.60-17.60L524.60-17.60Q528.60-26.80 531.80-43.90L531.80-43.90L531.80-43.90Q535.00-61 535.30-68.40L535.30-68.40L535.30-68.40Q535.60-75.80 535.60-81.30L535.60-81.30L535.60-81.30Q535.60-86.80 534.00-90.40L534.00-90.40L534.00-90.40Q532.40-94 527.90-94L527.90-94L527.90-94Q523.40-94 520.40-91.20L520.40-91.20L520.40-91.20Q517.40-88.40 515.00-83ZM648.00-22.60L648.00-22.60L648.00-22.60Q637.60-11.80 618.60-11.80L618.60-11.80L618.60-11.80Q594.80-11.80 589.80-29.20L589.80-29.20L589.80-29.20Q588.20-34.40 588.20-40.20L588.20-40.20L588.20-40.20Q588.20-46 589.40-52L589.40-52L598.80-102L639.40-106L628.40-47.80L628.40-47.80Q628.00-45.20 627.40-42.40L627.40-42.40L627.40-42.40Q626.80-39.60 626.80-36.70L626.80-36.70L626.80-36.70Q626.80-33.80 627.80-31.90L627.80-31.90L627.80-31.90Q628.80-30 630.20-28.80L630.20-28.80L630.20-28.80Q632.60-27.20 636.90-27.20L636.90-27.20L636.90-27.20Q641.20-27.20 644.90-32.40L644.90-32.40L644.90-32.40Q648.60-37.60 650.40-46.60L650.40-46.60L661.40-102L700.80-106L685.80-27.40L685.80-27.40Q678.40 11 663.20 26.20L663.20 26.20L663.20 26.20Q655.40 34 645.30 37.10L645.30 37.10L645.30 37.10Q635.20 40.20 622.20 40.20L622.20 40.20L622.20 40.20Q601.20 40.20 589.20 33.60L589.20 33.60L589.20 33.60Q577.20 27 577.20 16L577.20 16L577.20 16Q577.20 7.80 583.40 3.10L583.40 3.10L583.40 3.10Q589.60-1.60 599.20-1.60L599.20-1.60L599.20-1.60Q607.60-1.60 614.00 2L614.00 2L614.00 2Q617.80 4.20 619.60 7L619.60 7L619.60 7Q615.00 11 615.00 17.60L615.00 17.60L615.00 17.60Q615.00 26.40 623.00 26.40L623.00 26.40L623.00 26.40Q636.20 26.40 643.80-4L643.80-4L643.80-4Q646.00-13 648.00-22.60ZM755.80-11L755.80-11L755.80-11Q749.60 4 729.80 4L729.80 4L729.80 4Q719.80 4 713.40-3L713.40-3L713.40-3Q708.20-8.80 708.20-15.40L708.20-15.40L708.20-15.40Q708.20-30.40 715.20-63.20L715.20-63.20L729.80-140L770.40-144L751.00-42.80L751.00-42.80Q747.60-28 747.60-22.80L747.60-22.80L747.60-22.80Q747.60-11.40 755.80-11ZM853.80-33.80L853.80-33.80L853.80-33.80Q858.80-30.40 858.80-22.90L858.80-22.90L858.80-22.90Q858.80-15.40 855.00-10.60L855.00-10.60L855.00-10.60Q851.20-5.80 845.00-2.60L845.00-2.60L845.00-2.60Q832.20 4 818.40 4L818.40 4L818.40 4Q804.60 4 796.50 1L796.50 1L796.50 1Q788.40-2 783.00-7.60L783.00-7.60L783.00-7.60Q772.40-18.20 772.40-37.60L772.40-37.60L772.40-37.60Q772.40-67.80 788.80-86.20L788.80-86.20L788.80-86.20Q806.40-106 837.00-106L837.00-106L837.00-106Q856.00-106 865.40-98L865.40-98L865.40-98Q872.40-92 872.40-82.20L872.40-82.20L872.40-82.20Q872.40-47 811.60-47L811.60-47L811.60-47Q810.80-41.80 810.80-37.40L810.80-37.40L810.80-37.40Q810.80-28.20 814.90-24.70L814.90-24.70L814.90-24.70Q819.00-21.20 826.60-21.20L826.60-21.20L826.60-21.20Q834.20-21.20 842.30-24.70L842.30-24.70L842.30-24.70Q850.40-28.20 853.80-33.80ZM813.00-55.60L813.00-55.60L813.00-55.60Q827.20-55.60 835.40-64.40L835.40-64.40L835.40-64.40Q843.60-72.80 843.60-86.20L843.60-86.20L843.60-86.20Q843.60-90.80 841.90-93.30L841.90-93.30L841.90-93.30Q840.20-95.80 836.80-95.80L836.80-95.80L836.80-95.80Q833.40-95.80 830.50-94.50L830.50-94.50L830.50-94.50Q827.60-93.20 824.60-88.80L824.60-88.80L824.60-88.80Q817.20-78.80 813.00-55.60Z" fill="#420d00"></path></g></g><style>text {   font-size: 64px;   font-family: Arial Black;   dominant-baseline: central;   text-anchor: middle; }</style></svg>